:FULLY-SPECIFIED
:DEGREES
1
root -0.567874014377594 -0.567874014377594 -0.567874014377594 -0.5678755879732001 -0.5678755879732001 -0.5678755879732001
lhipjoint -9.671654586443837e-08 -1.5341245206083327e-07 1.0672170578144923e-06
lfemur 0.5938304669018073 -6.107131684096861 -14.6986217353808
ltibia 20.028148335302756 -1.0765285005888199e-06 3.8847172746095623e-07
lfoot -22.46039406666993 1.9877194537274394e-08 14.859911529988773
ltoes -55.03269195424698 -9.793734452893387e-08 3.5269756084810324e-07
rhipjoint 1.1005675908711953e-07 6.870210827458292e-07 -1.494104084495789e-06
rfemur 9.38925785388872 8.847445414014643 14.424644064751371
rtibia 0.09545873718031143 4.128227983520364e-09 9.278707710407202e-10
rfoot -19.12681095921849 1.3377916790097095e-06 -14.345518030764065
rtoes -4.734085649119055 -3.5485127981176563e-07 -3.749899413882938e-07
lowerback 10.013315162879861 1.4009126731829296 -1.360860764055092
upperback -3.928026850635524 1.7567656356622996 0.9349165070347569
thorax -9.904523056006251 0.9648188617776612 1.4262532086122057
lowerneck -11.457395592112624 -2.029057957114028 -1.9248847656666397
upperneck 23.5797988923852 -3.0151462414105206 2.3060364286666197
head 9.370881229926802 -1.331763944747426 0.7745436119620046
lclavicle -1.4085775951116125e-07 5.4855408257763046e-08 -1.0938974842598547e-06
lhumerus -42.832908587093684 -4.10325663445267 93.49891034078976
lradius 37.397485026732554 -1.193568841756685e-06 1.8163880110356153e-06
lwrist -4.893815166174361e-08 -3.5382031952671547 1.1799951694592751e-08
lhand -4.562975323145072 2.6246558075710764e-07 -26.656099019086014
lfingers 7.125022823272814 9.845282338726802e-08 3.18924141240953e-07
lthumb 21.213298854421275 -1.2803152392500461e-07 2.20318914769186
rclavicle 1.398304276268298e-07 4.3880174074018323e-07 -1.3740421654916584e-06
rhumerus -52.17756018306034 1.82829777995302 -89.81026667952439
rradius 44.50216925420436 -3.066498463919988e-06 -3.750995356692858e-06
rwrist 1.1106778108704441e-07 14.920553364534731 2.4827908554478265e-07
rhand -6.972260092956778 2.0321462048512455e-07 -36.68780446630613
rfingers 7.125022396385991 5.1024341088409163e-08 -3.1892353057445414e-07
rthumb 18.897492480477187 1.5447771905696147e-06 -65.78980959509936
2
root -0.567874014377594 -0.567874014377594 -0.567874014377594 -0.5678755879732001 -0.5678755879732001 -0.5678755879732001
lhipjoint -9.671654586443837e-08 -1.5341245206083327e-07 1.0672170578144923e-06
lfemur 0.31276788907109165 -6.025701315038323 -14.701270141231472
ltibia 20.095318123147955 -9.431823461244021e-07 -4.67148981394132e-07
lfoot -22.364050833332314 -4.6373240411086647e-07 14.764807975985516
ltoes -55.102308657362336 1.630908036232144e-06 5.403985297078592e-07
rhipjoint 1.1005675908711953e-07 6.870210827458292e-07 -1.494104084495789e-06
rfemur 9.066327363704165 8.817980831708855 14.39237142092306
rtibia 0.33407826604451657 1.3038900194378027e-08 -1.7042879618433738e-06
rfoot -19.212516172923806 1.3185827571776668e-06 -14.387798609273737
rtoes -4.859186967070185 4.837658274940944e-07 -5.471568776282823e-07
lowerback 10.279213573494811 1.397825320956378 -1.3364085801047407
upperback -3.9106376158954945 1.7727209575634495 0.9241657892811569
thorax -10.021717149332623 0.9685890194778024 1.3947521627166954
lowerneck -11.457395592112624 -2.029057957114028 -1.9248847656666397
upperneck 23.5797988923852 -3.0151462414105206 2.3060364286666197
head 9.370881229926802 -1.331763944747426 0.7745436119620046
lclavicle -1.4085775951116125e-07 5.4855408257763046e-08 -1.0938974842598547e-06
lhumerus -41.605356253607724 -5.113960280187654 93.81211549536988
lradius 37.9029190253135 -2.045363928552034e-06 1.5947478266142736e-06
lwrist -5.0574769684184296e-08 -3.656078173076412 1.2194733273597388e-08
lhand -4.562975323145072 2.6246558075710764e-07 -26.656099019086014
lfingers 7.125022823272814 9.845282338726802e-08 3.18924141240953e-07
lthumb 21.213298854421275 -1.2803152392500461e-07 2.20318914769186
rclavicle 1.398304276268298e-07 4.3880174074018323e-07 -1.3740421654916584e-06
rhumerus -51.186755866585365 2.8533467439357345 -90.39402928750704
rradius 44.9234655674945 -3.065678542367544e-06 -3.848934049776976e-06
rwrist 1.1726152966263285e-07 15.685888013865709 2.6212688985018796e-07
rhand -6.972260092956778 2.0321462048512455e-07 -36.68780446630613
rfingers 7.125022396385991 5.1024341088409163e-08 -3.1892353057445414e-07
rthumb 18.897492480477187 1.5447771905696147e-06 -65.78980959509936
3
root -0.567874014377594 -0.567874014377594 -0.567874014377594 -0.5678755879732001 -0.5678755879732001 -0.5678755879732001
lhipjoint -9.671654586443837e-08 -1.5341245206083327e-07 1.0672170578144923e-06
lfemur -0.08932515393446726 -5.838254030343316 -14.716749057438014
ltibia 20.26773600346117 -1.293065955745846e-06 1.2355617306604853e-06
lfoot -22.22506672900631 -5.502797243256054e-07 14.5587941026923
ltoes -55.1860911728163 1.6350318670988173e-06 5.416648484709558e-07
rhipjoint 1.1005675908711953e-07 6.870210827458292e-07 -1.494104084495789e-06
rfemur 8.532764938573816 8.74605893974862 14.35313369168863
rtibia 0.8865177332151937 2.9237872298070946e-08 8.81598232715847e-09
rfoot -19.378011656513216 -4.2899804987891496e-07 -14.337022982983862
rtoes -5.035980010433619 4.7081862905229225e-07 -5.363766801464924e-07
lowerback 10.682358659065644 1.3828263322607357 -1.2753195816115581
upperback -3.8916356027376957 1.7864087633818608 0.929206575610332
thorax -10.193085741834597 0.9692993591514838 1.3578554808202865
lowerneck -11.457395592112624 -2.029057957114028 -1.9248847656666397
upperneck 23.5797988923852 -3.0151462414105206 2.3060364286666197
head 9.370881229926802 -1.331763944747426 0.7745436119620046
lclavicle -1.4085775951116125e-07 5.4855408257763046e-08 -1.0938974842598547e-06
lhumerus -39.72475587319851 -5.91489430235956 94.12764291426778
lradius 38.51723989964279 -1.4884828993739576e-06 2.828451706229785e-06
lwrist -5.3698207964678086e-08 -3.880586917981554 1.294787192425587e-08
lhand -4.562975323145072 2.6246558075710764e-07 -26.656099019086014
lfingers 7.125022823272814 9.845282338726802e-08 3.18924141240953e-07
lthumb 21.213298854421275 -1.2803152392500461e-07 2.20318914769186
rclavicle 1.398304276268298e-07 4.3880174074018323e-07 -1.3740421654916584e-06
rhumerus -49.34868365904324 3.555311538477567 -90.82389407311095
rradius 45.54976659362799 -2.7048479215323767e-06 -4.847727147729333e-06
rwrist 1.2667887218563434e-07 16.831051190488385 2.831794647311065e-07
rhand -6.972260092956778 2.0321462048512455e-07 -36.68780446630613
rfingers 7.125022396385991 5.1024341088409163e-08 -3.1892353057445414e-07
rthumb 18.897492480477187 1.5447771905696147e-06 -65.78980959509936
4
root -0.567874014377594 -0.567874014377594 -0.567874014377594 -0.5678755879732001 -0.5678755879732001 -0.5678755879732001
lhipjoint -9.671654586443837e-08 -1.5341245206083327e-07 1.0672170578144923e-06
lfemur -0.6317923381436208 -5.569773808222101 -14.732214313266216
ltibia 20.59158430031545 -1.168454164214351e-06 1.264883798602084e-06
lfoot -22.036210290908166 -6.710109338124655e-07 14.230986003666708
ltoes -55.272967763964274 -5.152751501679167e-07 5.832597863730113e-07
rhipjoint 1.1005675908711953e-07 6.870210827458292e-07 -1.494104084495789e-06
rfemur 7.738455773009999 8.628496016207068 14.31525346255174
rtibia 1.8985605762751758 1.410608570109008e-07 -1.6872833425166474e-06
rfoot -19.683131574663317 -7.719140056374581e-08 -14.185746245699129
rtoes -5.292290969887986 4.4853953050845155e-07 -5.980432080879534e-07
lowerback 11.175567472805911 1.3606693053149201 -1.1690689454394283
upperback -3.885339448983413 1.805738518898114 0.9473202372892059
thorax -10.41734731926915 0.9711707242623615 1.307312187683898
lowerneck -11.457395592112624 -2.029057957114028 -1.9248847656666397
upperneck 23.5797988923852 -3.0151462414105206 2.3060364286666197
head 9.370881229926802 -1.331763944747426 0.7745436119620046
lclavicle -1.4085775951116125e-07 5.4855408257763046e-08 -1.0938974842598547e-06
lhumerus -36.76763571732524 -6.519246515595213 94.65864914110125
lradius 39.117422282390145 -1.740332755492963e-06 9.021449467357883e-07
lwrist -6.163749583832859e-08 -4.450688720737355 1.4862177019687098e-08
lhand -4.562975323145072 2.6246558075710764e-07 -26.656099019086014
lfingers 7.125022823272814 9.845282338726802e-08 3.18924141240953e-07
lthumb 21.213298854421275 -1.2803152392500461e-07 2.20318914769186
rclavicle 1.398304276268298e-07 4.3880174074018323e-07 -1.3740421654916584e-06
rhumerus -46.25740834258717 3.9706382664331175 -91.17255473967259
rradius 46.30846400663301 -1.3510401904798147e-06 -3.438448100366052e-06
rwrist 1.4253641810538152e-07 18.708072551772513 3.1862595787845643e-07
rhand -6.972260092956778 2.0321462048512455e-07 -36.68780446630613
rfingers 7.125022396385991 5.1024341088409163e-08 -3.1892353057445414e-07
rthumb 18.897492480477187 1.5447771905696147e-06 -65.78980959509936
